<svg width="415" height="447" viewBox="0 0 415 447" fill="none" xmlns="http://www.w3.org/2000/svg">
<path fill-rule="evenodd" clip-rule="evenodd" d="M25.0001 207.234V287.454C25.0001 361.294 83.3629 421.154 155.357 421.154H259.643C294.215 421.154 327.372 407.067 351.818 381.993C376.266 356.922 390 322.914 390 287.454V207.234C390.035 171.764 376.312 137.736 351.858 112.655C327.405 87.574 294.226 73.4992 259.643 73.5347H155.357C120.774 73.4992 87.5969 87.574 63.1427 112.655C38.6885 137.736 24.9656 171.764 25.0001 207.234Z" stroke="black" stroke-width="50" stroke-linecap="round" stroke-linejoin="round"/>
<path d="M109.231 127.015C109.231 138.091 118.21 147.07 129.286 147.07C140.362 147.07 149.341 138.091 149.341 127.015H109.231ZM149.341 20.0549C149.341 8.979 140.362 0 129.286 0C118.21 0 109.231 8.979 109.231 20.0549H149.341ZM265.659 127.015C265.659 138.091 274.639 147.07 285.714 147.07C296.79 147.07 305.769 138.091 305.769 127.015H265.659ZM305.769 20.0549C305.769 8.979 296.79 0 285.714 0C274.639 0 265.659 8.979 265.659 20.0549H305.769ZM119.008 215.551C119.008 226.626 127.987 235.605 139.063 235.605C150.139 235.605 159.118 226.626 159.118 215.551H119.008ZM207.5 215.551L227.528 216.601C227.547 216.251 227.555 215.901 227.555 215.551H207.5ZM161.876 256.008L160.001 236.041C149.697 237.009 141.821 245.657 141.821 256.008C141.821 266.359 149.697 275.009 160.002 275.975L161.876 256.008ZM207.5 296.439H227.555C227.555 296.083 227.547 295.73 227.528 295.375L207.5 296.439ZM159.118 296.439C159.118 285.363 150.139 276.384 139.063 276.384C127.987 276.384 119.008 285.363 119.008 296.439H159.118ZM239.826 190.514C231.537 197.859 230.769 210.534 238.117 218.824C245.463 227.113 258.137 227.878 266.427 220.532L239.826 190.514ZM275.938 185.308H295.993C295.993 177.416 291.364 170.258 284.169 167.019C276.97 163.78 268.545 165.064 262.638 170.298L275.938 185.308ZM255.883 326.869C255.883 337.945 264.863 346.924 275.938 346.924C287.014 346.924 295.993 337.945 295.993 326.869H255.883ZM149.341 127.015V20.0549H109.231V127.015H149.341ZM305.769 127.015V20.0549H265.659V127.015H305.769ZM159.118 215.551C159.118 211.802 160.413 209.957 162.16 208.582C164.435 206.791 168.39 205.304 173.281 205.304C178.174 205.304 182.129 206.791 184.402 208.582C186.151 209.957 187.445 211.802 187.445 215.551H227.555C227.555 199.097 220.295 185.789 209.211 177.065C198.654 168.755 185.501 165.193 173.281 165.193C161.064 165.193 147.909 168.755 137.352 177.065C126.268 185.789 119.008 199.097 119.008 215.551H159.118ZM187.475 214.5C187.138 220.874 184.292 226.712 179.768 230.723L206.38 260.733C219.07 249.481 226.64 233.53 227.528 216.601L187.475 214.5ZM179.768 230.723C175.268 234.715 169.484 236.579 163.748 236.041L160.002 275.975C176.928 277.563 193.67 272.004 206.38 260.733L179.768 230.723ZM163.751 275.975C169.481 275.437 175.262 277.298 179.765 281.288L206.366 251.27C193.659 240.007 176.92 234.453 160.001 236.041L163.751 275.975ZM179.765 281.288C184.287 285.296 187.135 291.131 187.475 297.503L227.528 295.375C226.63 278.454 219.054 262.514 206.366 251.27L179.765 281.288ZM187.445 296.439C187.445 300.212 186.14 302.068 184.391 303.445C182.118 305.239 178.166 306.726 173.281 306.726C168.396 306.726 164.446 305.239 162.171 303.445C160.423 302.068 159.118 300.212 159.118 296.439H119.008C119.008 312.895 126.259 326.211 137.342 334.947C147.899 343.268 161.058 346.836 173.281 346.836C185.506 346.836 198.665 343.268 209.222 334.947C220.306 326.211 227.555 312.895 227.555 296.439H187.445ZM266.427 220.532L289.239 200.317L262.638 170.298L239.826 190.514L266.427 220.532ZM255.883 185.308V326.869H295.993V185.308H255.883Z" fill="black"/>
</svg>
